<svg width="2000" height="2559" viewBox="0 0 1440 2559" fill="none" xmlns="http://www.w3.org/2000/svg">
<path d="M-3218.04 1907.12H950.66C949.217 1907.69 947.67 1908.25 946.24 1908.82C945.402 1909.1 944.565 1909.45 943.728 1909.81C946.356 1908.82 948.74 1908.04 951.252 1907.12H2546.12C2629.03 1900.77 2715.41 1894.41 2799.99 1889.33V434.63C2387.33 761.333 1813.62 1221.32 1502.27 1461.62C1487.93 1472.84 1472.88 1484.13 1457.7 1494.58C1429.03 1515.05 1399.16 1533.97 1368.46 1552.18C901.673 1827.21 241.814 1838.94 -290.44 1612.25C-398.681 1565.95 -507.284 1526.84 -616.84 1494.37C-645.043 1486.18 -673.118 1478.2 -701.786 1470.79C-1240.38 1327.56 -1793.79 1342.87 -2331.18 1494.86C-2447.19 1527.62 -2562.84 1565.74 -2675.39 1610.21C-2698.8 1619.67 -2722.58 1629.41 -2745.52 1639.43C-2763.92 1647.2 -2782.07 1655.18 -2800.24 1663.37C-2951.49 1731.21 -3094.03 1811.83 -3218.04 1907.12Z" fill="#1C75BC"/>
<path d="M-2608.6 1907.12H950.656C949.225 1907.69 947.667 1908.25 946.237 1908.82C945.399 1909.1 944.562 1909.45 943.724 1909.81C946.353 1908.82 948.749 1908.04 951.249 1907.12H2800V492.164C2505.85 746.795 2127.36 1071.52 1834.52 1324.1C1834.41 1324.24 1834.16 1324.38 1834.05 1324.52C1833.93 1324.59 1833.81 1324.73 1833.69 1324.8C1833.45 1324.94 1833.33 1325.16 1833.09 1325.3C1736.68 1408.39 1649.7 1483.7 1578.02 1546.04C1564.16 1558.32 1550.29 1569.84 1536.08 1581.34C1508.72 1603.08 1480.16 1623.27 1451.14 1642.97C1270.85 1763.26 1056.15 1841.82 828.318 1879.16C827.237 1879.39 826.051 1879.52 824.969 1879.73C824.608 1879.8 824.248 1879.87 823.899 1879.94C823.538 1880.01 823.062 1880.08 822.701 1880.15C822.341 1880.22 821.864 1880.29 821.503 1880.37C487.927 1933.95 126.648 1899.85 -196.053 1780.12C-217.557 1772.16 -238.945 1764.46 -260.577 1757.05C-260.694 1757.05 -260.926 1756.98 -261.054 1756.91C-261.054 1756.83 -261.17 1756.83 -261.17 1756.83C-350.06 1725.91 -439.542 1699.3 -529.036 1677.28C-557.588 1670.36 -586.14 1663.72 -614.692 1657.57C-1160.69 1538.84 -1710.28 1580.28 -2234.64 1757.33C-2278.73 1772.22 -2322.94 1788.03 -2366.67 1804.41C-2369.65 1805.68 -2372.75 1806.74 -2375.74 1808.01C-2384.46 1811.33 -2393.07 1814.65 -2401.79 1817.97C-2418.63 1824.68 -2435.48 1831.31 -2451.96 1838.23C-2462.84 1842.53 -2473.6 1847.12 -2484.46 1851.5C-2513.02 1863.78 -2541.21 1876.35 -2569.29 1888.84C-2582.43 1894.77 -2595.57 1900.84 -2608.6 1907.12Z" fill="#323031"/>
<path d="M2049.58 1792.41C2036.55 1790.36 2023.18 1788.31 2010.63 1786.48H2011.47C2030.94 1788.8 2050.89 1791.14 2070.85 1793.97C2082.07 1795.44 2095.1 1796.5 2108.96 1797.28C2086.38 1796.85 2066.42 1795.09 2049.58 1792.41ZM1579.8 1521.47C1565.95 1533.19 1551.61 1545.27 1537.4 1556.28C1510.51 1578.02 1481.96 1598.7 1452.93 1617.91C1007.29 1915.45 351.368 1957.95 -194.271 1755.27C-304.653 1714.33 -416.011 1679.82 -527.242 1652.43C-527.719 1652.29 -528.196 1652.21 -528.673 1652.07L-528.789 1652C-528.917 1651.93 -529.149 1651.93 -529.266 1651.93C-557.225 1645.3 -585.067 1638.8 -613.026 1632.72C-1159.49 1514.27 -1708.48 1555.5 -2232.85 1732.27C-2285.66 1750.41 -2338.11 1769.11 -2390.44 1789.87C-2394.38 1787.82 -2397.85 1785.21 -2401.79 1782.95C-2449.82 1753.09 -2497.49 1723.01 -2544.92 1692.88C-2588.41 1665.27 -2631.89 1637.67 -2675.39 1610.21C-3078.97 1356.71 -3490.79 1125.38 -4101.79 1092.62C-4242.05 1085.28 -4384.23 1088.81 -4527 1102.23V2179.23L2655 2938L2799.99 1747.37V1736.85V468.373C2408.96 807.147 1869.06 1269.67 1579.8 1521.47Z" fill="#00AEEF"/>
</svg>
